<mxfile host="app.diagrams.net" agent="Mozilla/5.0 (Windows NT 10.0; Win64; x64) AppleWebKit/537.36 (KHTML, like Gecko) Chrome/133.0.0.0 Safari/537.36" version="26.1.0">
  <diagram name="Page-1" id="HKKf5HRINP2vO2V-6ERy">
    <mxGraphModel dx="1353" dy="576" grid="1" gridSize="10" guides="1" tooltips="1" connect="1" arrows="1" fold="1" page="1" pageScale="1" pageWidth="850" pageHeight="1100" math="0" shadow="0">
      <root>
        <mxCell id="0" />
        <mxCell id="1" parent="0" />
        <mxCell id="KHIfVMnyjgvf3O8pkYBD-1" value="Start" style="ellipse;whiteSpace=wrap;html=1;fillColor=light-dark(#5EFF5B,var(--ge-dark-color, #121212));" vertex="1" parent="1">
          <mxGeometry x="350" y="20" width="110" height="50" as="geometry" />
        </mxCell>
        <mxCell id="KHIfVMnyjgvf3O8pkYBD-2" value="Input&lt;div&gt;Assignment1, Assignment2, Assignment3&lt;/div&gt;" style="shape=parallelogram;perimeter=parallelogramPerimeter;whiteSpace=wrap;html=1;fixedSize=1;fillColor=light-dark(#47FFFB,var(--ge-dark-color, #121212));" vertex="1" parent="1">
          <mxGeometry x="260" y="110" width="290" height="80" as="geometry" />
        </mxCell>
        <mxCell id="KHIfVMnyjgvf3O8pkYBD-4" value="Average = (Assignment1 + Assignment2&amp;nbsp; Assignment3) / 3" style="rounded=0;whiteSpace=wrap;html=1;fillColor=light-dark(#F2FF33,var(--ge-dark-color, #121212));" vertex="1" parent="1">
          <mxGeometry x="280" y="240" width="250" height="90" as="geometry" />
        </mxCell>
        <mxCell id="KHIfVMnyjgvf3O8pkYBD-5" value="Output" style="shape=parallelogram;perimeter=parallelogramPerimeter;whiteSpace=wrap;html=1;fixedSize=1;fillColor=light-dark(#D391FF,var(--ge-dark-color, #121212));" vertex="1" parent="1">
          <mxGeometry x="331.25" y="380" width="147.5" height="90" as="geometry" />
        </mxCell>
        <mxCell id="KHIfVMnyjgvf3O8pkYBD-6" value="Stop" style="ellipse;whiteSpace=wrap;html=1;fillColor=light-dark(#FF5043,var(--ge-dark-color, #121212));" vertex="1" parent="1">
          <mxGeometry x="352.5" y="500" width="105" height="60" as="geometry" />
        </mxCell>
        <mxCell id="KHIfVMnyjgvf3O8pkYBD-7" value="" style="shape=flexArrow;endArrow=classic;html=1;rounded=0;entryX=0.5;entryY=0;entryDx=0;entryDy=0;" edge="1" parent="1" target="KHIfVMnyjgvf3O8pkYBD-2">
          <mxGeometry width="50" height="50" relative="1" as="geometry">
            <mxPoint x="404.5" y="70" as="sourcePoint" />
            <mxPoint x="410" y="140" as="targetPoint" />
          </mxGeometry>
        </mxCell>
        <mxCell id="KHIfVMnyjgvf3O8pkYBD-8" value="" style="shape=flexArrow;endArrow=classic;html=1;rounded=0;entryX=0.5;entryY=0;entryDx=0;entryDy=0;" edge="1" parent="1" target="KHIfVMnyjgvf3O8pkYBD-4">
          <mxGeometry width="50" height="50" relative="1" as="geometry">
            <mxPoint x="404.5" y="190" as="sourcePoint" />
            <mxPoint x="405" y="230" as="targetPoint" />
          </mxGeometry>
        </mxCell>
        <mxCell id="KHIfVMnyjgvf3O8pkYBD-9" value="" style="shape=flexArrow;endArrow=classic;html=1;rounded=0;entryX=0.5;entryY=0;entryDx=0;entryDy=0;" edge="1" parent="1">
          <mxGeometry width="50" height="50" relative="1" as="geometry">
            <mxPoint x="405.75" y="330" as="sourcePoint" />
            <mxPoint x="406.25" y="380" as="targetPoint" />
          </mxGeometry>
        </mxCell>
        <mxCell id="KHIfVMnyjgvf3O8pkYBD-10" value="" style="shape=flexArrow;endArrow=classic;html=1;rounded=0;" edge="1" parent="1">
          <mxGeometry width="50" height="50" relative="1" as="geometry">
            <mxPoint x="404.5" y="470" as="sourcePoint" />
            <mxPoint x="405" y="500" as="targetPoint" />
          </mxGeometry>
        </mxCell>
      </root>
    </mxGraphModel>
  </diagram>
</mxfile>
